<svg aria-hidden="true" style="position:absolute;width:0;height:0" xmlns="http://www.w3.org/2000/svg" overflow="hidden"><defs><symbol id="cart" viewBox="0 0 32 32"><path d="M18.204 27.671a2.17 2.17 0 00-2.168 2.171c0 1.19.972 2.159 2.168 2.159a2.165 2.165 0 100-4.33zm-11.814 0a2.165 2.165 0 100 4.33 2.163 2.163 0 002.165-2.159 2.168 2.168 0 00-2.165-2.171zM29.746 6.376a.982.982 0 00-1.261-.57l-5.144 1.942a.983.983 0 00-.591.627l-.764 2.459H3.793a.967.967 0 00-.893-.212.988.988 0 00-.671 1.226l-.002-.007 2.819 9.808c.119.419.506.71.941.71h12.426c.709-2.903.442-2.003.177-1.102l-.956 3.799H5.865a.983.983 0 000 1.966h12.506a.98.98 0 00.941-.707l1.35-4.661c.077-.243 3.553-11.394 3.814-12.232 102.759-34.936 104.311-35.535 105.862-36.135L29.173 7.648a.987.987 0 00.57-1.271zM19 20.397H6.729c-.083-.278-.262-.915-.493-1.715h13.298L19 20.397zm1.029-3.296H5.784c-.147-.506-.295-1.027-.445-1.546h15.173l-.483 1.546zm.977-3.132H4.88C3.676 9.243 3.524 8.725 3.371 8.207l1.065 4.211h17.053l-.483 1.551z"/><path d="M18.961 4.417H15.82V0h-4.932v4.417H7.75l5.607 5.608z"/></symbol><symbol id="clock" viewBox="0 0 32 32"><path d="M16 0C7.178 0 0 7.178 0 16s7.178 16 16 16 16-7.178 16-16S24.822 0 16 0zm0 30C8.28 30 2 23.72 2 16S8.28 2 16 2s14 6.28 14 14-6.28 14-14 14z"/><path d="M17 6h-2v10.414l6.293 6.293 1.414-1.414L17 15.586z"/></symbol><symbol id="explore" viewBox="0 0 32 32"><path d="M26.165 7.46a14.264 14.264 0 00-8.29-4.089V1.875C17.875.841 17.034 0 16 0s-1.875.841-1.875 1.875v1.497a14.268 14.268 0 00-6.049 2.257l.053-.033a.625.625 0 10.685 1.045 13.055 13.055 0 015.981-2.086l.03-.003A12.9 12.9 0 0116 4.5c7.237 0 13.125 5.888 13.125 13.125S23.237 30.75 16 30.75 2.875 24.862 2.875 17.625c0-2.565.74-5.05 2.142-7.186a.624.624 0 10-1.045-.685 14.316 14.316 0 00-2.346 7.872c0 3.84 1.495 7.45 4.21 10.165s6.325 4.21 10.165 4.21 7.45-1.495 10.165-4.21c2.715-2.715 4.21-6.325 4.21-10.165s-1.495-7.449-4.21-10.165zm-10.79-4.196V1.875a.625.625 0 011.25 0v1.389a13.284 13.284 0 00-.624-.014H16c-.209 0-.417.005-.625.014z"/><path d="M16 29.5c6.548 0 11.875-5.327 11.875-11.875S22.548 5.75 16 5.75 4.125 11.077 4.125 17.625 9.452 29.5 16 29.5zM16 7c5.859 0 10.625 4.766 10.625 10.625S21.859 28.25 16 28.25 5.375 23.484 5.375 17.625 10.141 7 16 7z"/><path d="M8.597 18.25h5.231l.546.825c.047.07.106.129.174.175l.002.001.825.546v5.231a.625.625 0 001.25 0v-4.403l4.46 2.952a.625.625 0 00.864-.868l.001.002-2.952-4.46h4.403a.625.625 0 000-1.25H18.17l-.546-.825a.644.644 0 00-.174-.175L17.448 16l-.825-.546v-5.231a.625.625 0 00-1.25 0v4.403l-4.46-2.952a.625.625 0 00-.865.868l-.001-.002L12.999 17H8.596a.625.625 0 000 1.25zm8.057-1.279l2.56 3.867-3.867-2.56-2.56-3.867zM6.277 8.527a.626.626 0 10-.001 0h.001z"/></symbol><symbol id="heart" viewBox="0 0 32 32"><path d="M23.667 1.333c-3.549 0-6.481 3.297-7.667 4.853-1.186-1.556-4.117-4.853-7.667-4.853C3.738 1.333 0 5.558 0 10.75c0 2.833 1.124 5.473 3.092 7.279.03.052.065.096.105.136l12.332 12.307a.663.663 0 00.942 0l12.874-12.865a5.27 5.27 0 00.322-.326.68.68 0 00.117-.155l.002-.003C31.215 15.373 32 13.116 32 10.751c0-5.192-3.738-9.417-8.333-9.417zm5.009 15.039a.65.65 0 00-.049.065l-.001.002c-.063.072-.131.135-.199.199L15.999 29.057 4.291 17.373a.672.672 0 00-.154-.198l-.001-.001c-1.782-1.556-2.803-3.898-2.803-6.425 0-4.457 3.14-8.083 7-8.083 3.816 0 7.074 4.978 7.106 5.028.246.38.875.38 1.121 0 .033-.05 3.29-5.028 7.106-5.028 3.86 0 7 3.626 7 8.083 0 2.1-.707 4.097-1.99 5.622z"/></symbol><symbol id="mail" viewBox="0 0 32 32"><path d="M29.188 3.813H2.813A2.818 2.818 0 000 6.626v18.75a2.818 2.818 0 002.813 2.813h26.375a2.818 2.818 0 002.813-2.813V6.626a2.818 2.818 0 00-2.813-2.813zm-.389 1.875L16.06 18.428 3.21 5.688h25.589zM1.875 24.987V7.005l9.03 8.953-9.03 9.03zm1.326 1.326l9.036-9.036 3.166 3.139a.938.938 0 001.323-.003l3.087-3.087 8.987 8.987H3.202zm26.924-1.326L21.138 16l8.987-8.987v17.973z"/></symbol><symbol id="phone" viewBox="0 0 32 32"><path d="M31.16 24.686l-6.477-4.319a1.89 1.89 0 00-2.531.411l-1.887 2.426a.805.805 0 01-1.038.215l.004.002-.359-.198c-1.19-.648-2.67-1.456-5.652-4.439s-3.791-4.465-4.44-5.652l-.197-.359a.808.808 0 01.211-1.036l.002-.001L11.22 9.85a1.89 1.89 0 00.412-2.531L7.313.842A1.88 1.88 0 004.778.271L2.07 1.898A3.839 3.839 0 00.335 4.132l-.007.027c-.975 3.554-.242 9.687 8.793 18.722C16.308 30.067 21.658 32 25.335 32h.04c.877 0 1.726-.12 2.532-.343l-.066.016a3.834 3.834 0 002.251-1.725l.01-.018 1.629-2.707a1.88 1.88 0 00-.57-2.536zm-.348 1.989l-1.625 2.708a2.774 2.774 0 01-1.607 1.256l-.019.005c-3.281.901-9.012.155-17.685-8.519S.457 7.721 1.357 4.44a2.778 2.778 0 011.249-1.622l.013-.007 2.708-1.625a.816.816 0 011.1.247l4.316 6.476a.822.822 0 01-.178 1.099L8.14 10.894a1.865 1.865 0 00-.494 2.395l.193.35c.682 1.25 1.529 2.805 4.622 5.898s4.648 3.94 5.897 4.622l.35.193c.81.454 1.831.244 2.395-.494l1.886-2.425a.822.822 0 011.099-.178l6.476 4.319a.814.814 0 01.247 1.1zM18.132 5.336c5.004.006 9.06 4.061 9.065 9.065a.533.533 0 101.066 0c-.006-5.593-4.539-10.126-10.132-10.132a.533.533 0 100 1.066z"/><path d="M18.132 8.536a5.873 5.873 0 015.866 5.866.533.533 0 001.066 0 6.94 6.94 0 00-6.932-6.932.533.533 0 100 1.066z"/><path d="M18.132 11.735a2.67 2.67 0 012.666 2.666.533.533 0 001.066 0 3.737 3.737 0 00-3.733-3.733.533.533 0 100 1.066z"/></symbol><symbol id="safe-box" viewBox="0 0 32 32"><path d="M24.18 11.879a8.962 8.962 0 00-3.652-4.557.469.469 0 00-.504.791l.002.001a8.034 8.034 0 013.121 3.693h-2.216c-.05 0-.333-.5-.382-.565a6.16 6.16 0 00-1.509-1.407l-.023-.014a6.07 6.07 0 00-3.873-.949l.024-.002-.016.001a6.313 6.313 0 00-.922.158c-1.807.497-3.32 1.733-4.075 3.464a5.904 5.904 0 00-.479 1.874 6.135 6.135 0 00.158 2.025l.001.004a6.15 6.15 0 003.462 4.08 6.028 6.028 0 001.574.442 5.913 5.913 0 002.008-.049 6.138 6.138 0 004.052-2.851h2.211c-1.218 2.899-4.086 4.941-7.422 4.941-4.437 0-8.047-3.61-8.047-8.047s3.61-8.047 8.047-8.047c.835 0 1.658.127 2.446.378a.469.469 0 00.288-.892l-.003-.001a8.997 8.997 0 00-2.731-.423c-4.954 0-8.984 4.03-8.984 8.984s4.03 8.984 8.984 8.984c3.889 0 7.209-2.485 8.456-5.95a3.111 3.111 0 002.445-3.034 3.11 3.11 0 00-2.44-3.033zm-3.671 1.199h-2.121a3.288 3.288 0 00-.824-.827l-.011-.007v-2.121a5.157 5.157 0 012.955 2.955zm-4.79 4.137c-1.27 0-2.303-1.033-2.303-2.303s1.033-2.303 2.303-2.303 2.303 1.033 2.303 2.303-1.033 2.303-2.303 2.303zm-.313-7.423c.103-.006 1.21-.021 1.21.07v1.937a3.15 3.15 0 00-.897-.127c-.319 0-.628.046-.919.133l.023-.006V9.862c.003-.037.549-.068.584-.07zm-1.522.33v2.121a3.308 3.308 0 00-.828.824l-.007.011h-2.121a5.156 5.156 0 012.956-2.955zm-3.227 5.623a5.168 5.168 0 01.004-1.691l-.004.03.012-.068h1.937a3.24 3.24 0 000 1.794h-1.937a1.426 1.426 0 01-.011-.064zm.272 1.002h2.121c.229.329.506.606.825.828l.011.007v2.121a5.16 5.16 0 01-2.956-2.956zm4.931 3.292a5.124 5.124 0 01-.974-.065l-.065-.012v-1.937a3.24 3.24 0 001.793 0v1.937a5.053 5.053 0 01-.747.076h-.008zm1.694-.336v-2.121c.329-.229.606-.506.828-.824l.007-.011h2.121a5.158 5.158 0 01-2.955 2.956zm3.215-3.894h-1.937a3.24 3.24 0 000-1.794l1.937-.003c.12-.008.127 1.773 0 1.796zm2.745 1.272h-2.128a5.42 5.42 0 00.206-.636l.009-.042.004-.01a6.447 6.447 0 00.166-1.889 6.082 6.082 0 00-.166-1.072l-.004-.012a5.956 5.956 0 00-.229-.717l.014.041h2.128c1.196 0 2.168.973 2.168 2.168s-.973 2.168-2.168 2.168zm7.943.919a.469.469 0 00-.469.469v9.808c0 .336-.274.61-.61.61h-16.69a.469.469 0 000 .938h8.269v.88c0 .714.581 1.296 1.296 1.296h3.026c.714 0 1.296-.581 1.296-1.296v-.88h2.804a1.55 1.55 0 001.548-1.548v-9.808a.469.469 0 00-.469-.469zm-4.82 12.704c0 .198-.16.358-.358.358h-3.026a.358.358 0 01-.358-.358v-.88h3.741v.88z"/><path d="M30.378 0H1.622A1.55 1.55 0 00.074 1.548v26.729a1.55 1.55 0 001.548 1.548h2.804v.88c0 .714.581 1.295 1.296 1.295h3.026c.714 0 1.296-.581 1.296-1.296v-.88h1.446a.469.469 0 000-.938H1.623a.611.611 0 01-.61-.61v-5.684h1.495v3.333a1.28 1.28 0 001.278 1.278h24.431a1.28 1.28 0 001.278-1.278V3.898a1.28 1.28 0 00-1.278-1.278H3.786a1.28 1.28 0 00-1.278 1.278v3.333H1.013V1.547c0-.336.274-.61.61-.61h28.756c.336 0 .61.274.61.61v14.755a.469.469 0 00.938 0V1.547A1.55 1.55 0 0030.38-.001zM9.105 29.825v.88c0 .198-.16.358-.358.358H5.721a.358.358 0 01-.358-.358v-.88zM1.012 11.703h1.495v6.418H1.012zm0 9.952v-2.596h2.499a1.3 1.3 0 010 2.596H1.012zM3.444 3.899a.34.34 0 01.34-.34h24.431a.34.34 0 01.34.34v22.027a.34.34 0 01-.34.34H3.784a.34.34 0 01-.34-.34v-3.333h.067c1.233 0 2.236-1.003 2.236-2.236s-1.003-2.236-2.236-2.236h-.067v-6.418h.067c1.233 0 2.236-1.003 2.236-2.236S4.744 7.231 3.511 7.231h-.067zm.067 4.27a1.3 1.3 0 010 2.596H1.012V8.169h2.499z"/><path d="M5.554 5.026a.53.53 0 11-1.06 0 .53.53 0 011.06 0zm21.952 0a.53.53 0 11-1.06 0 .53.53 0 011.06 0zM5.554 24.798a.53.53 0 11-1.06 0 .53.53 0 011.06 0zm21.952 0a.53.53 0 11-1.06 0 .53.53 0 011.06 0z"/></symbol><symbol id="settings" viewBox="0 0 32 32"><path d="M31.24 20.5l-3.368-2.819C27.958 17.093 28 16.54 28 16s-.042-1.093-.128-1.681L31.24 11.5a.663.663 0 00.148-.847l.002.003-3.066-5.311a.668.668 0 00-.811-.291l.005-.002-4.119 1.505a11.964 11.964 0 00-2.917-1.678L19.724.552a.668.668 0 00-.657-.551h-6.133c-.328 0-.6.236-.656.547l-.001.004-.758 4.327a11.931 11.931 0 00-2.917 1.678L4.483 5.052a.664.664 0 00-.806.293L.611 10.656a.662.662 0 00.149.843l.001.001 3.368 2.819c-.086.588-.128 1.141-.128 1.681s.042 1.093.128 1.681L.761 20.5a.663.663 0 00-.148.847l-.002-.003 3.066 5.311a.668.668 0 00.806.293l4.119-1.505a11.964 11.964 0 002.917 1.678l.758 4.328a.668.668 0 00.657.551h6.133c.328 0 .6-.236.656-.547l.001-.004.758-4.328a11.931 11.931 0 002.917-1.678l4.119 1.505a.669.669 0 00.806-.293l3.066-5.311a.662.662 0 00-.149-.843l-.001-.001zm-3.791 5.004l-3.948-1.443a.664.664 0 00-.657.115c-.936.785-2.006 1.4-3.184 1.831a.669.669 0 00-.427.507l-.001.004-.726 4.148h-5.013l-.726-4.148a.672.672 0 00-.423-.51l-.005-.002a10.632 10.632 0 01-3.184-1.831.661.661 0 00-.662-.114l.005-.002-3.948 1.443-2.506-4.341 3.228-2.703a.668.668 0 00.229-.63l.001.004c-.114-.656-.169-1.256-.169-1.835s.055-1.179.169-1.835a.663.663 0 00-.228-.625l-.001-.001-3.228-2.703 2.506-4.341 3.948 1.443a.663.663 0 00.658-.116l-.001.001c.936-.784 2.007-1.4 3.184-1.831a.669.669 0 00.427-.507l.001-.004.726-4.148h5.013l.726 4.148a.672.672 0 00.423.51l.005.002a10.632 10.632 0 013.184 1.831.664.664 0 00.657.115l3.948-1.443 2.506 4.341-3.229 2.703a.668.668 0 00-.229.629l-.001-.004c.114.656.169 1.257.169 1.835s-.055 1.179-.169 1.835a.663.663 0 00.228.625l.001.001 3.229 2.703-2.506 4.341z"/><path d="M16 9.333c-3.676 0-6.667 2.991-6.667 6.667s2.991 6.667 6.667 6.667 6.667-2.991 6.667-6.667S19.676 9.333 16 9.333zm0 12c-2.941 0-5.333-2.393-5.333-5.333S13.06 10.667 16 10.667 21.333 13.06 21.333 16 18.94 21.333 16 21.333z"/></symbol><symbol id="transfer" viewBox="0 0 32 32"><path d="M31.665 11.763l-8-8a1.143 1.143 0 00-1.951.808V8h-8a1.143 1.143 0 000 2.286h9.143c.631 0 1.143-.512 1.143-1.143V7.33l5.241 5.241L24 17.812v-1.813c0-.631-.512-1.143-1.143-1.143H10.285v-3.429a1.143 1.143 0 00-1.951-.808l-8 8a1.143 1.143 0 000 1.616l8 8c.214.214.505.335.808.335h.004c.157 0 .306-.032.442-.09l-.007.003c.418-.176.705-.582.705-1.056v-3.429h8a1.143 1.143 0 000-2.286H9.143c-.631 0-1.143.512-1.143 1.143v1.813l-5.241-5.241L8 14.186v1.813c0 .631.512 1.143 1.143 1.143h12.572v3.429a1.143 1.143 0 001.951.808l8-8a1.143 1.143 0 000-1.616z"/></symbol><symbol id="world" viewBox="0 0 32 32"><path d="M16.006.003a15.997 15.997 0 00-14.708 9.7l-.199.066.077.232c-3.318 8.183.626 17.506 8.809 20.823 1.777.741 3.842 1.172 6.007 1.172h.009c8.835.001 15.998-7.16 15.999-15.994S24.84.004 16.006.003zm12.547 24.062l-.821-.821v-1.918a.528.528 0 00-.055-.235l.001.003-2.08-4.153v-2.007a.53.53 0 00-.235-.442l-.002-.001-1.6-1.066a.53.53 0 00-.43-.073l.004-.001-1.959.489-3.291-1.412-.453-3.172 1.255-1.254h2.693l.906 1.362c.081.12.207.204.353.229h.003l3.199.533a.518.518 0 00.259-.022l-.004.001 2.947-.982a14.88 14.88 0 01-.692 14.941zM26.354 5.258l-.867.578-2.417-.484-1.568-.522a.503.503 0 00-.302-.011l.004-.001-1.983.495-.869-.29.644-1.288H20.8a.538.538 0 00.241-.057l-.003.001 1.845-.922a15.107 15.107 0 013.475 2.504l-.004-.004zM10.161 2.26l1.28.853a.53.53 0 00.205.082h.003l2.584.431-.252.754-1.346.45a.534.534 0 00-.287.229l-.001.002-1.531 2.552-2.46 1.476-3.626.518a.535.535 0 00-.459.527v1.6c0 .147.06.28.156.377l.91.91v.916l-2.218-1.479-.805-2.414c1.562-3.509 4.323-6.249 7.75-7.746l.097-.038zM8.642 19.743l-2.41-.483-.896-1.787V16.22l1.987-1.987.735 1.471a.534.534 0 00.477.295h3.431l1.444 2.407a.534.534 0 00.457.259h1.482l-.373 1.87-2.019 2.019a.53.53 0 00-.157.377v1.333l-1.92 1.44a.533.533 0 00-.213.427v1.926l-.663-.22-.936-2.342v-5.23a.533.533 0 00-.423-.522l-.003-.001zM7.04 27.94a14.926 14.926 0 01-5.318-16.3l.443 1.329a.536.536 0 00.208.274l.002.001 2.658 1.772-.606.607a.533.533 0 00-.156.377v1.601c0 .087.021.169.057.241l-.001-.003 1.066 2.133a.538.538 0 00.37.284l.003.001 2.24.447v4.895c0 .071.014.139.039.201l-.001-.004 1.066 2.666a.535.535 0 00.323.307l.004.001 1.6.533a.533.533 0 00.699-.505v-2.399l1.92-1.44a.533.533 0 00.213-.427v-1.379l1.977-1.977a.53.53 0 00.145-.269l.001-.003.533-2.666a.533.533 0 00-.523-.638h-1.831l-1.444-2.408a.534.534 0 00-.457-.259H8.867l-.916-1.838a.534.534 0 00-.389-.287h-.003a.52.52 0 00-.462.149l-.692.689V12.8c0-.147-.06-.28-.156-.377l-.91-.91v-.917l3.275-.468a.53.53 0 00.201-.072l-.002.001 2.666-1.6a.537.537 0 00.181-.18l.001-.002 1.498-2.497 1.412-.471a.532.532 0 00.336-.333l.001-.004.533-1.6a.533.533 0 00-.415-.692h-.003l-3.086-.515-.542-.362c1.376-.464 2.961-.731 4.608-.731 2.036 0 3.977.409 5.745 1.149l-.098-.036-.974.486h-2.01a.535.535 0 00-.476.292l-.001.003-1.066 2.133a.534.534 0 00.305.743l.004.001 1.6.533a.521.521 0 00.298.012l1.983-.495 1.453.484a.464.464 0 00.064.017l2.666.533a.524.524 0 00.403-.08l-.002.001 1.214-.809a14.974 14.974 0 011.567 2.08l.037.063-2.623.874-2.84-.473-.938-1.408a.535.535 0 00-.441-.237h-3.2c-.147 0-.28.06-.377.156l-1.6 1.6a.53.53 0 00-.15.455v-.003l.533 3.733c.028.188.15.341.316.413l.003.001 3.733 1.6a.527.527 0 00.342.026l-.004.001 1.904-.476 1.164.777v1.854c0 .085.02.164.055.235l-.001-.003 2.08 4.153v2.007c0 .147.06.28.156.377l1.116 1.116c-4.947 6.594-14.303 7.929-20.898 2.982z"/></symbol></defs></svg>