<svg aria-hidden="true" style="position: absolute; width: 0; height: 0; overflow: hidden;" version="1.1" xmlns="http://www.w3.org/2000/svg" xmlns:xlink="http://www.w3.org/1999/xlink">
<defs>
<symbol id="cart" viewBox="0 0 32 32">
<title>cart</title>
<path d="M18.204 27.671c-1.196 0-2.168 0.972-2.168 2.171 0 1.19 0.972 2.159 2.168 2.159 1.194 0 2.165-0.969 2.165-2.159 0-1.199-0.97-2.171-2.165-2.171zM6.39 27.671c-1.197 0-2.168 0.972-2.168 2.171 0 1.19 0.97 2.159 2.168 2.159 1.196 0 2.165-0.969 2.165-2.159 0-1.199-0.969-2.171-2.165-2.171zM29.746 6.376c-0.192-0.505-0.758-0.759-1.261-0.57l-5.144 1.942c-0.282 0.108-0.502 0.337-0.591 0.627l-0.764 2.459h-18.193c-0.24-0.205-0.567-0.304-0.893-0.212-0.414 0.123-0.711 0.5-0.711 0.946 0 0.097 0.014 0.191 0.040 0.28l-0.002-0.007 2.819 9.808c0.119 0.419 0.506 0.71 0.941 0.71h12.426c0.709-2.903 0.442-2.003 0.177-1.102l-0.956 3.799h-11.769c-0.54 0-0.981 0.438-0.981 0.981 0 0.546 0.441 0.985 0.981 0.985h12.506c0.438 0 0.818-0.288 0.941-0.707l1.35-4.661c0.077-0.243 3.553-11.394 3.814-12.232 102.759-34.936 104.311-35.535 105.862-36.135l-101.165 34.361c0.391-0.151 0.634-0.522 0.634-0.919 0-0.118-0.020-0.236-0.064-0.352zM19 20.397h-12.271c-0.083-0.278-0.262-0.915-0.493-1.715h13.298l-0.534 1.715zM20.029 17.101h-14.245c-0.147-0.506-0.295-1.027-0.445-1.546h15.173l-0.483 1.546zM21.006 13.969h-16.126c-1.204-4.726-1.356-5.244-1.509-5.762l1.065 4.211h17.053l-0.483 1.551z"></path>
<path d="M18.961 4.417h-3.141v-4.417h-4.932v4.417h-3.138l5.607 5.608z"></path>
</symbol>
<symbol id="clock" viewBox="0 0 32 32">
<title>clock</title>
<path d="M16 0c-8.822 0-16 7.178-16 16s7.178 16 16 16 16-7.178 16-16-7.178-16-16-16zM16 30c-7.72 0-14-6.28-14-14s6.28-14 14-14 14 6.28 14 14-6.28 14-14 14z"></path>
<path d="M17 6h-2v10.414l6.293 6.293 1.414-1.414-5.707-5.707z"></path>
</symbol>
<symbol id="explore" viewBox="0 0 32 32">
<title>explore</title>
<path d="M26.165 7.46c-2.268-2.268-5.16-3.684-8.29-4.089v-1.496c0-1.034-0.841-1.875-1.875-1.875s-1.875 0.841-1.875 1.875v1.497c-2.261 0.302-4.291 1.090-6.049 2.257l0.053-0.033c-0.289 0.189-0.369 0.577-0.18 0.865s0.577 0.369 0.865 0.18c1.8-1.18 3.847-1.891 5.981-2.086 0.010-0.001 0.020-0.001 0.030-0.003 0.352-0.033 0.761-0.052 1.175-0.052h0c7.237 0 13.125 5.888 13.125 13.125s-5.888 13.125-13.125 13.125-13.125-5.888-13.125-13.125c0-2.565 0.74-5.050 2.142-7.186 0.189-0.289 0.109-0.676-0.18-0.865s-0.676-0.109-0.865 0.18c-1.535 2.341-2.346 5.063-2.346 7.872 0 3.84 1.495 7.45 4.21 10.165s6.325 4.21 10.165 4.21 7.45-1.495 10.165-4.21c2.715-2.715 4.21-6.325 4.21-10.165s-1.495-7.449-4.21-10.165zM15.375 3.264v-1.389c0-0.345 0.28-0.625 0.625-0.625s0.625 0.28 0.625 0.625v1.389c-0.186-0.009-0.404-0.014-0.624-0.014h-0.001c-0.209 0-0.417 0.005-0.625 0.014z"></path>
<path d="M16 29.5c6.548 0 11.875-5.327 11.875-11.875s-5.327-11.875-11.875-11.875c-6.548 0-11.875 5.327-11.875 11.875s5.327 11.875 11.875 11.875zM16 7c5.859 0 10.625 4.766 10.625 10.625s-4.766 10.625-10.625 10.625-10.625-4.766-10.625-10.625c0-5.859 4.766-10.625 10.625-10.625z"></path>
<path d="M8.597 18.25h5.231l0.546 0.825c0.047 0.070 0.106 0.129 0.174 0.175l0.002 0.001 0.825 0.546v5.231c0 0.345 0.28 0.625 0.625 0.625s0.625-0.28 0.625-0.625v-4.403l4.46 2.952c0.097 0.065 0.216 0.104 0.344 0.104 0 0 0 0 0 0h-0c0 0 0 0 0 0 0.345 0 0.625-0.28 0.625-0.625 0-0.128-0.039-0.248-0.105-0.347l0.001 0.002-2.952-4.46h4.403c0.345 0 0.625-0.28 0.625-0.625s-0.28-0.625-0.625-0.625h-5.231l-0.546-0.825c-0.047-0.070-0.106-0.129-0.174-0.175l-0.002-0.001-0.825-0.546v-5.231c0-0.345-0.28-0.625-0.625-0.625s-0.625 0.28-0.625 0.625v4.403l-4.46-2.952c-0.097-0.065-0.217-0.104-0.345-0.104-0.345 0-0.625 0.28-0.625 0.625 0 0.129 0.039 0.248 0.105 0.347l-0.001-0.002 2.952 4.46h-4.403c-0.345 0-0.625 0.28-0.625 0.625s0.28 0.625 0.625 0.625zM16.654 16.971l2.56 3.867-3.867-2.56-2.56-3.867zM6.277 8.527c0.15 0 0.301-0.054 0.42-0.163l0-0c0.255-0.232 0.274-0.627 0.042-0.883s-0.628-0.274-0.883-0.042c-0.255 0.232-0.274 0.628-0.042 0.883 0.114 0.126 0.279 0.205 0.462 0.205 0 0 0.001 0 0.001 0h-0z"></path>
</symbol>
<symbol id="heart" viewBox="0 0 32 32">
<title>heart</title>
<path d="M23.667 1.333c-3.549 0-6.481 3.297-7.667 4.853-1.186-1.556-4.117-4.853-7.667-4.853-4.595 0-8.333 4.225-8.333 9.417 0 2.833 1.124 5.473 3.092 7.279 0.030 0.052 0.065 0.096 0.105 0.136l0 0 12.332 12.307c0.13 0.13 0.3 0.195 0.471 0.195s0.341-0.065 0.471-0.195l12.874-12.865c0.104-0.098 0.207-0.198 0.322-0.326 0.046-0.046 0.086-0.098 0.117-0.155l0.002-0.003c1.429-1.75 2.214-4.007 2.214-6.372 0-5.192-3.738-9.417-8.333-9.417zM28.676 16.372c-0.017 0.020-0.034 0.042-0.049 0.065l-0.001 0.002c-0.063 0.072-0.131 0.135-0.199 0.199l-12.428 12.419-11.708-11.684c-0.040-0.078-0.092-0.143-0.154-0.198l-0.001-0.001c-1.782-1.556-2.803-3.898-2.803-6.425 0-4.457 3.14-8.083 7-8.083 3.816 0 7.074 4.978 7.106 5.028 0.246 0.38 0.875 0.38 1.121 0 0.033-0.050 3.29-5.028 7.106-5.028 3.86 0 7 3.626 7 8.083 0 2.1-0.707 4.097-1.99 5.622z"></path>
</symbol>
<symbol id="mail" viewBox="0 0 32 32">
<title>mail</title>
<path d="M29.188 3.813h-26.375c-1.549 0-2.813 1.262-2.813 2.813v18.75c0 1.545 1.258 2.813 2.813 2.813h26.375c1.545 0 2.813-1.258 2.813-2.813v-18.75c0-1.545-1.258-2.813-2.813-2.813zM28.799 5.688l-12.739 12.74-12.85-12.74h25.589zM1.875 24.987v-17.982l9.030 8.953-9.030 9.030zM3.201 26.313l9.036-9.036 3.166 3.139c0.367 0.363 0.958 0.362 1.323-0.003l3.087-3.087 8.987 8.987h-25.598zM30.125 24.987l-8.987-8.987 8.987-8.987v17.973z"></path>
</symbol>
<symbol id="phone" viewBox="0 0 32 32">
<title>phone</title>
<path d="M31.16 24.686l-6.477-4.319c-0.822-0.544-1.924-0.365-2.531 0.411l-1.887 2.426c-0.149 0.195-0.381 0.319-0.642 0.319-0.144 0-0.279-0.038-0.396-0.104l0.004 0.002-0.359-0.198c-1.19-0.648-2.67-1.456-5.652-4.439s-3.791-4.465-4.44-5.652l-0.197-0.359c-0.065-0.114-0.104-0.251-0.104-0.396 0-0.261 0.124-0.492 0.315-0.64l0.002-0.001 2.424-1.886c0.776-0.608 0.955-1.709 0.412-2.531l-4.319-6.477c-0.557-0.837-1.673-1.089-2.535-0.571l-2.708 1.627c-0.841 0.501-1.464 1.293-1.735 2.234l-0.007 0.027c-0.975 3.554-0.242 9.687 8.793 18.722 7.187 7.186 12.537 9.119 16.214 9.119 0.012 0 0.026 0 0.040 0 0.877 0 1.726-0.12 2.532-0.343l-0.066 0.016c0.968-0.277 1.761-0.901 2.251-1.725l0.010-0.018 1.629-2.707c0.519-0.862 0.268-1.979-0.57-2.536zM30.812 26.675l-1.625 2.708c-0.36 0.607-0.929 1.058-1.607 1.256l-0.019 0.005c-3.281 0.901-9.012 0.155-17.685-8.519s-9.419-14.404-8.519-17.685c0.203-0.698 0.654-1.269 1.249-1.622l0.013-0.007 2.708-1.625c0.374-0.225 0.859-0.116 1.1 0.247l4.316 6.476c0.236 0.357 0.158 0.835-0.178 1.099l-2.425 1.886c-0.738 0.564-0.949 1.585-0.494 2.395l0.193 0.35c0.682 1.25 1.529 2.805 4.622 5.898s4.648 3.94 5.897 4.622l0.35 0.193c0.81 0.454 1.831 0.244 2.395-0.494l1.886-2.425c0.264-0.336 0.742-0.414 1.099-0.178l6.476 4.319c0.364 0.241 0.473 0.726 0.247 1.1zM18.132 5.336c5.004 0.006 9.060 4.061 9.065 9.065 0 0.295 0.239 0.533 0.533 0.533s0.533-0.239 0.533-0.533c-0.006-5.593-4.539-10.126-10.132-10.132-0.295 0-0.533 0.239-0.533 0.533s0.239 0.533 0.533 0.533z"></path>
<path d="M18.132 8.536c3.238 0.004 5.862 2.628 5.866 5.866 0 0.294 0.239 0.533 0.533 0.533s0.533-0.239 0.533-0.533v0c-0.004-3.827-3.106-6.928-6.932-6.932-0.295 0-0.533 0.239-0.533 0.533s0.239 0.533 0.533 0.533z"></path>
<path d="M18.132 11.735c1.472 0.002 2.664 1.194 2.666 2.666 0 0.294 0.239 0.533 0.533 0.533s0.533-0.239 0.533-0.533v0c-0.002-2.061-1.672-3.73-3.733-3.733-0.295 0-0.533 0.239-0.533 0.533s0.239 0.533 0.533 0.533z"></path>
</symbol>
<symbol id="safe-box" viewBox="0 0 32 32">
<title>safe-box</title>
<path d="M24.18 11.879c-0.662-1.855-1.928-3.462-3.652-4.557-0.071-0.046-0.158-0.073-0.251-0.073-0.259 0-0.469 0.21-0.469 0.469 0 0.166 0.086 0.311 0.216 0.395l0.002 0.001c1.423 0.903 2.496 2.196 3.121 3.693h-2.216c-0.050 0-0.333-0.5-0.382-0.565-0.428-0.558-0.935-1.030-1.509-1.407l-0.023-0.014c-0.87-0.565-1.884-0.9-2.919-0.964-0.113-0.007-0.245-0.012-0.377-0.012-0.194 0-0.387 0.009-0.577 0.027l0.024-0.002-0.016 0.001c-0.294 0.027-0.635 0.085-0.912 0.155-0.003 0.001-0.006 0.002-0.010 0.003-1.807 0.497-3.32 1.733-4.075 3.464-0.267 0.611-0.42 1.218-0.479 1.874-0.060 0.668-0.007 1.375 0.158 2.025 0 0.001 0.001 0.002 0.001 0.004 0.468 1.806 1.749 3.331 3.462 4.080 0.501 0.219 1.033 0.366 1.574 0.442 0.687 0.097 1.328 0.083 2.008-0.049 1.668-0.323 3.172-1.38 4.052-2.851h2.211c-1.218 2.899-4.086 4.941-7.422 4.941-4.437 0-8.047-3.61-8.047-8.047s3.61-8.047 8.047-8.047c0.835 0 1.658 0.127 2.446 0.378 0.247 0.079 0.51-0.058 0.589-0.304 0.014-0.043 0.022-0.091 0.022-0.142 0-0.208-0.136-0.385-0.323-0.446l-0.003-0.001c-0.88-0.28-1.799-0.423-2.731-0.423-4.954 0-8.984 4.030-8.984 8.984s4.030 8.984 8.984 8.984c3.889 0 7.209-2.485 8.456-5.95 1.396-0.304 2.445-1.549 2.445-3.034-0-1.484-1.047-2.728-2.44-3.033zM20.509 13.078h-2.121c-0.229-0.329-0.506-0.606-0.824-0.827l-0.011-0.007v-2.121c1.355 0.521 2.434 1.6 2.955 2.955zM15.719 17.215c-1.27 0-2.303-1.033-2.303-2.303s1.033-2.303 2.303-2.303 2.303 1.033 2.303 2.303-1.033 2.303-2.303 2.303zM15.406 9.792c0.103-0.006 1.21-0.021 1.21 0.070v1.937c-0.269-0.081-0.578-0.127-0.897-0.127h-0c-0.319 0-0.628 0.046-0.919 0.133l0.023-0.006v-1.937c0.003-0.037 0.549-0.068 0.584-0.070zM13.884 10.122v2.121c-0.329 0.229-0.606 0.506-0.828 0.824l-0.007 0.011h-2.121c0.521-1.355 1.601-2.435 2.956-2.955zM10.657 15.745c-0.043-0.25-0.067-0.539-0.067-0.832 0-0.293 0.024-0.58 0.071-0.859l-0.004 0.030c0.004-0.023 0.008-0.045 0.012-0.068h1.937c-0.081 0.269-0.127 0.578-0.127 0.897v0c0 0.311 0.045 0.612 0.127 0.897h-1.937c-0.004-0.021-0.008-0.043-0.011-0.064zM10.929 16.747h2.121c0.229 0.329 0.506 0.606 0.825 0.828l0.011 0.007v2.121c-1.355-0.521-2.435-1.601-2.956-2.956zM15.86 20.039c-0.325 0.009-0.653-0.012-0.974-0.065-0.022-0.004-0.043-0.008-0.065-0.012v-1.937c0.269 0.081 0.577 0.127 0.896 0.127h0c0.311 0 0.612-0.045 0.897-0.127v1.937c-0.222 0.041-0.482 0.068-0.747 0.076l-0.008 0zM17.554 19.703v-2.121c0.329-0.229 0.606-0.506 0.828-0.824l0.007-0.011h2.121c-0.521 1.355-1.6 2.435-2.955 2.956zM20.769 15.809h-1.937c0.081-0.269 0.127-0.577 0.127-0.897v-0c0-0.311-0.045-0.612-0.127-0.897 0 0 1.929-0.002 1.937-0.003 0.12-0.008 0.127 1.773 0 1.796zM23.514 17.081h-2.128c0.072-0.179 0.146-0.405 0.206-0.636l0.009-0.042c0.001-0.004 0.003-0.007 0.004-0.010 0.145-0.575 0.207-1.295 0.166-1.889-0.025-0.36-0.077-0.721-0.166-1.072-0.001-0.004-0.003-0.008-0.004-0.012-0.070-0.273-0.143-0.498-0.229-0.717l0.014 0.041h2.128c1.196 0 2.168 0.973 2.168 2.168s-0.973 2.168-2.168 2.168zM31.457 18c-0.259 0-0.469 0.21-0.469 0.469v0 9.808c0 0.336-0.274 0.61-0.61 0.61h-16.69c-0.259 0-0.469 0.21-0.469 0.469s0.21 0.469 0.469 0.469h8.269v0.88c0 0.714 0.581 1.296 1.296 1.296h3.026c0.714 0 1.296-0.581 1.296-1.296v-0.88h2.804c0.853 0 1.548-0.694 1.548-1.548v-9.808c0-0.259-0.21-0.469-0.469-0.469v0zM26.637 30.704c-0 0.198-0.16 0.358-0.358 0.358h-3.026c-0.198-0-0.358-0.16-0.358-0.358v-0.88h3.741v0.88z"></path>
<path d="M30.378 0h-28.756c-0.853 0-1.548 0.694-1.548 1.548v26.729c0 0.853 0.694 1.548 1.548 1.548h2.804v0.88c0 0.714 0.581 1.295 1.296 1.295h3.026c0.714 0 1.296-0.581 1.296-1.296v-0.88h1.446c0.259 0 0.469-0.21 0.469-0.469s-0.21-0.469-0.469-0.469h-9.867c-0.336 0-0.61-0.274-0.61-0.61v-5.684h1.495v3.333c0 0.705 0.573 1.278 1.278 1.278h24.431c0.705 0 1.278-0.573 1.278-1.278v-22.027c0-0.705-0.573-1.278-1.278-1.278h-24.431c-0.705 0-1.278 0.573-1.278 1.278v3.333h-1.495v-5.684c0-0.336 0.274-0.61 0.61-0.61h28.756c0.336 0 0.61 0.274 0.61 0.61v14.755c0 0.259 0.21 0.469 0.469 0.469s0.469-0.21 0.469-0.469v-14.755c0-0.853-0.694-1.548-1.547-1.548zM9.105 29.825v0.88c-0 0.198-0.16 0.358-0.358 0.358h-3.026c-0.197-0-0.358-0.16-0.358-0.358v-0.88zM1.012 11.703h1.495v6.418h-1.495zM1.012 21.655v-2.596h2.499c0.716 0 1.298 0.582 1.298 1.298s-0.582 1.298-1.298 1.298h-2.499zM3.444 3.899c0-0.188 0.153-0.34 0.34-0.34h24.431c0.188 0 0.34 0.153 0.34 0.34v22.027c0 0.188-0.153 0.34-0.34 0.34h-24.431c-0.188 0-0.34-0.153-0.34-0.34v-3.333h0.067c1.233 0 2.236-1.003 2.236-2.236s-1.003-2.236-2.236-2.236h-0.067v-6.418h0.067c1.233 0 2.236-1.003 2.236-2.236s-1.003-2.236-2.236-2.236h-0.067zM3.511 8.169c0.716 0 1.298 0.582 1.298 1.298s-0.582 1.298-1.298 1.298h-2.499v-2.596h2.499z"></path>
<path d="M5.554 5.026c0 0.293-0.237 0.53-0.53 0.53s-0.53-0.237-0.53-0.53c0-0.293 0.237-0.53 0.53-0.53s0.53 0.237 0.53 0.53z"></path>
<path d="M27.506 5.026c0 0.293-0.237 0.53-0.53 0.53s-0.53-0.237-0.53-0.53c0-0.293 0.237-0.53 0.53-0.53s0.53 0.237 0.53 0.53z"></path>
<path d="M5.554 24.798c0 0.293-0.237 0.53-0.53 0.53s-0.53-0.237-0.53-0.53c0-0.293 0.237-0.53 0.53-0.53s0.53 0.237 0.53 0.53z"></path>
<path d="M27.506 24.798c0 0.293-0.237 0.53-0.53 0.53s-0.53-0.237-0.53-0.53c0-0.293 0.237-0.53 0.53-0.53s0.53 0.237 0.53 0.53z"></path>
</symbol>
<symbol id="settings" viewBox="0 0 32 32">
<title>settings</title>
<path d="M31.24 20.5l-3.368-2.819c0.086-0.588 0.128-1.141 0.128-1.681s-0.042-1.093-0.128-1.681l3.368-2.819c0.147-0.123 0.239-0.306 0.239-0.511 0-0.123-0.033-0.238-0.091-0.336l0.002 0.003-3.066-5.311c-0.118-0.201-0.332-0.333-0.578-0.333-0.082 0-0.16 0.015-0.233 0.042l0.005-0.002-4.119 1.505c-0.881-0.689-1.859-1.253-2.917-1.678l-0.758-4.327c-0.057-0.315-0.329-0.551-0.657-0.551h-6.133c-0 0-0 0-0 0-0.328 0-0.6 0.236-0.656 0.547l-0.001 0.004-0.758 4.327c-1.058 0.425-2.036 0.988-2.917 1.678l-4.119-1.505c-0.303-0.113-0.645 0.012-0.806 0.293l-3.066 5.311c-0.056 0.096-0.089 0.211-0.089 0.333 0 0.205 0.093 0.388 0.238 0.51l0.001 0.001 3.368 2.819c-0.086 0.588-0.128 1.141-0.128 1.681s0.042 1.093 0.128 1.681l-3.368 2.819c-0.147 0.123-0.239 0.306-0.239 0.511 0 0.123 0.033 0.238 0.091 0.336l-0.002-0.003 3.066 5.311c0.163 0.281 0.505 0.404 0.806 0.293l4.119-1.505c0.881 0.689 1.859 1.253 2.917 1.678l0.758 4.328c0.057 0.315 0.329 0.551 0.657 0.551 0 0 0 0 0 0h6.133c0 0 0 0 0 0 0.328 0 0.6-0.236 0.656-0.547l0.001-0.004 0.758-4.328c1.058-0.425 2.036-0.988 2.917-1.678l4.119 1.505c0.303 0.109 0.644-0.012 0.806-0.293l3.066-5.311c0.056-0.096 0.089-0.211 0.089-0.333 0-0.205-0.093-0.388-0.238-0.51l-0.001-0.001zM27.449 25.504l-3.948-1.443c-0.223-0.083-0.475-0.038-0.657 0.115-0.936 0.785-2.006 1.4-3.184 1.831-0.222 0.083-0.385 0.274-0.427 0.507l-0.001 0.004-0.726 4.148h-5.013l-0.726-4.148c-0.043-0.237-0.206-0.428-0.423-0.51l-0.005-0.002c-1.177-0.431-2.248-1.047-3.184-1.831-0.115-0.097-0.264-0.156-0.428-0.156-0.082 0-0.161 0.015-0.234 0.042l0.005-0.002-3.948 1.443-2.506-4.341 3.228-2.703c0.146-0.123 0.239-0.307 0.239-0.512 0-0.040-0.004-0.079-0.010-0.118l0.001 0.004c-0.114-0.656-0.169-1.256-0.169-1.835s0.055-1.179 0.169-1.835c0.006-0.034 0.010-0.073 0.010-0.114 0-0.205-0.092-0.388-0.238-0.511l-0.001-0.001-3.228-2.703 2.506-4.341 3.948 1.443c0.068 0.026 0.147 0.041 0.229 0.041 0.163 0 0.313-0.059 0.429-0.157l-0.001 0.001c0.936-0.784 2.007-1.4 3.184-1.831 0.222-0.083 0.385-0.274 0.427-0.507l0.001-0.004 0.726-4.148h5.013l0.726 4.148c0.043 0.237 0.206 0.428 0.423 0.51l0.005 0.002c1.177 0.431 2.248 1.047 3.184 1.831 0.182 0.153 0.434 0.198 0.657 0.115l3.948-1.443 2.506 4.341-3.229 2.703c-0.146 0.123-0.239 0.307-0.239 0.511 0 0.040 0.004 0.079 0.010 0.118l-0.001-0.004c0.114 0.656 0.169 1.257 0.169 1.835s-0.055 1.179-0.169 1.835c-0.006 0.034-0.010 0.073-0.010 0.114 0 0.205 0.092 0.388 0.238 0.511l0.001 0.001 3.229 2.703-2.506 4.341z"></path>
<path d="M16 9.333c-3.676 0-6.667 2.991-6.667 6.667s2.991 6.667 6.667 6.667 6.667-2.991 6.667-6.667-2.991-6.667-6.667-6.667zM16 21.333c-2.941 0-5.333-2.393-5.333-5.333s2.393-5.333 5.333-5.333 5.333 2.393 5.333 5.333-2.393 5.333-5.333 5.333z"></path>
</symbol>
<symbol id="transfer" viewBox="0 0 32 32">
<title>transfer</title>
<path d="M31.665 11.763l-8-8c-0.446-0.446-1.17-0.446-1.616 0-0.207 0.207-0.335 0.492-0.335 0.808v0 3.429h-8c-0.631 0-1.143 0.512-1.143 1.143s0.512 1.143 1.143 1.143h9.143c0.631 0 1.143-0.512 1.143-1.143v-1.813l5.241 5.241-5.241 5.241v-1.813c0-0.631-0.512-1.143-1.143-1.143h-12.572v-3.429c-0-0.631-0.512-1.143-1.143-1.143-0.315 0-0.601 0.128-0.808 0.335l-8 8c-0.446 0.446-0.446 1.17 0 1.616l8 8c0.214 0.214 0.505 0.335 0.808 0.335 0.001 0 0.002 0 0.004 0 0.157 0 0.306-0.032 0.442-0.090l-0.007 0.003c0.418-0.176 0.705-0.582 0.705-1.056 0-0 0-0 0-0v0-3.429h8c0.631 0 1.143-0.512 1.143-1.143s-0.512-1.143-1.143-1.143h-9.143c-0.631 0-1.143 0.512-1.143 1.143v1.813l-5.241-5.241 5.241-5.241v1.813c0 0.631 0.512 1.143 1.143 1.143h12.572v3.429c0 0.631 0.512 1.143 1.143 1.143 0.315-0 0.601-0.128 0.808-0.335l8-8c0.446-0.446 0.446-1.17 0-1.616z"></path>
</symbol>
<symbol id="world" viewBox="0 0 32 32">
<title>world</title>
<path d="M16.006 0.003c-6.402-0.001-12.188 3.815-14.708 9.7l-0.199 0.066 0.077 0.232c-3.318 8.183 0.626 17.506 8.809 20.823 1.777 0.741 3.842 1.172 6.007 1.172 0.003 0 0.006 0 0.009 0h-0c8.835 0.001 15.998-7.16 15.999-15.994s-7.16-15.998-15.994-15.999zM28.553 24.065l-0.821-0.821v-1.912c0-0.002 0-0.004 0-0.006 0-0.085-0.020-0.164-0.055-0.235l0.001 0.003-2.080-4.153v-2.007c0-0 0-0 0-0 0-0.184-0.093-0.347-0.235-0.442l-0.002-0.001-1.6-1.066c-0.083-0.056-0.186-0.090-0.296-0.090-0.046 0-0.091 0.006-0.134 0.017l0.004-0.001-1.959 0.489-3.291-1.412-0.453-3.172 1.255-1.254h2.693l0.906 1.362c0.081 0.12 0.207 0.204 0.353 0.229l0.003 0 3.199 0.533c0.026 0.005 0.057 0.007 0.087 0.007 0.060 0 0.118-0.010 0.172-0.029l-0.004 0.001 2.947-0.982c2.471 4.743 2.207 10.447-0.692 14.941zM26.354 5.258l-0.867 0.578-2.417-0.484-1.568-0.522c-0.050-0.018-0.108-0.028-0.169-0.028-0.046 0-0.090 0.006-0.133 0.017l0.004-0.001-1.983 0.495-0.869-0.29 0.644-1.288h1.803c0 0 0 0 0.001 0 0.087 0 0.169-0.021 0.241-0.057l-0.003 0.001 1.845-0.922c1.327 0.701 2.469 1.533 3.475 2.504l-0.004-0.004zM10.161 2.26l1.28 0.853c0.059 0.040 0.13 0.069 0.205 0.082l0.003 0 2.584 0.431-0.252 0.754-1.346 0.45c-0.123 0.042-0.223 0.123-0.287 0.229l-0.001 0.002-1.531 2.552-2.46 1.476-3.626 0.518c-0.26 0.038-0.458 0.259-0.459 0.527v1.6c0 0.147 0.060 0.28 0.156 0.377l0.91 0.91v0.916l-2.218-1.479-0.805-2.414c1.562-3.509 4.323-6.249 7.75-7.746l0.097-0.038zM8.642 19.743l-2.41-0.483-0.896-1.787v-1.253l1.987-1.987 0.735 1.471c0.089 0.176 0.269 0.295 0.477 0.295 0 0 0 0 0 0h3.431l1.444 2.407c0.095 0.156 0.264 0.259 0.457 0.259h1.482l-0.373 1.87-2.019 2.019c-0.097 0.096-0.157 0.23-0.157 0.377v1.333l-1.92 1.44c-0.13 0.098-0.213 0.253-0.213 0.427v0 1.926l-0.663-0.22-0.936-2.342v-5.23c0-0 0-0 0-0 0-0.257-0.181-0.471-0.423-0.522l-0.003-0.001zM7.040 27.94c-5.028-3.772-7.154-10.289-5.318-16.3l0.443 1.329c0.039 0.115 0.112 0.209 0.208 0.274l0.002 0.001 2.658 1.772-0.606 0.607c-0.096 0.096-0.156 0.23-0.156 0.377v0 1.6c0 0 0 0 0 0.001 0 0.087 0.021 0.169 0.057 0.241l-0.001-0.003 1.066 2.133c0.074 0.145 0.209 0.251 0.37 0.284l0.003 0.001 2.24 0.447v4.895c0 0 0 0 0 0 0 0.071 0.014 0.139 0.039 0.201l-0.001-0.004 1.066 2.666c0.059 0.146 0.177 0.257 0.323 0.307l0.004 0.001 1.6 0.533c0.049 0.017 0.106 0.027 0.166 0.028h0c0.294 0 0.533-0.239 0.533-0.533v0-2.399l1.92-1.44c0.13-0.098 0.213-0.253 0.213-0.427v0-1.379l1.977-1.977c0.072-0.072 0.124-0.165 0.145-0.269l0.001-0.003 0.533-2.666c0.007-0.031 0.010-0.068 0.010-0.105 0-0.294-0.239-0.533-0.533-0.533h-1.831l-1.444-2.408c-0.095-0.156-0.264-0.259-0.457-0.259h-3.403l-0.916-1.838c-0.077-0.151-0.219-0.259-0.389-0.287l-0.003-0c-0.027-0.005-0.058-0.008-0.089-0.008-0.146 0-0.278 0.060-0.373 0.157l-0 0-0.692 0.689v-0.846c-0-0.147-0.060-0.28-0.156-0.377l-0.91-0.91v-0.917l3.275-0.468c0.075-0.011 0.142-0.036 0.201-0.072l-0.002 0.001 2.666-1.6c0.075-0.046 0.137-0.107 0.181-0.18l0.001-0.002 1.498-2.497 1.412-0.471c0.16-0.054 0.283-0.177 0.336-0.333l0.001-0.004 0.533-1.6c0.017-0.050 0.027-0.107 0.027-0.167 0-0.263-0.191-0.482-0.442-0.525l-0.003-0-3.086-0.515-0.542-0.362c1.376-0.464 2.961-0.731 4.608-0.731 2.036 0 3.977 0.409 5.745 1.149l-0.098-0.036-0.974 0.486h-2.007c-0.001 0-0.002 0-0.003 0-0.208 0-0.387 0.119-0.476 0.292l-0.001 0.003-1.066 2.133c-0.035 0.069-0.056 0.151-0.056 0.238 0 0.234 0.151 0.433 0.361 0.505l0.004 0.001 1.6 0.533c0.096 0.033 0.199 0.037 0.298 0.012l1.983-0.495 1.453 0.484c0.021 0.007 0.042 0.013 0.064 0.017l2.666 0.533c0.032 0.007 0.068 0.011 0.106 0.011 0.11 0 0.212-0.033 0.297-0.091l-0.002 0.001 1.214-0.809c0.573 0.636 1.102 1.336 1.567 2.080l0.037 0.063-2.623 0.874-2.84-0.473-0.938-1.408c-0.097-0.143-0.258-0.236-0.441-0.237h-3.2c-0.147 0-0.28 0.060-0.377 0.156l-1.6 1.6c-0.097 0.097-0.156 0.23-0.156 0.377 0 0.027 0.002 0.053 0.006 0.078l-0-0.003 0.533 3.733c0.028 0.188 0.15 0.341 0.316 0.413l0.003 0.001 3.733 1.6c0.062 0.027 0.134 0.043 0.209 0.043 0.046 0 0.091-0.006 0.133-0.017l-0.004 0.001 1.904-0.476 1.164 0.777v1.848c-0 0.002-0 0.004-0 0.006 0 0.085 0.020 0.164 0.055 0.235l-0.001-0.003 2.080 4.153v2.007c0 0.147 0.060 0.28 0.156 0.377l1.116 1.116c-4.947 6.594-14.303 7.929-20.898 2.982z"></path>
</symbol>
</defs>
</svg>
